<svg width="31" height="30" viewBox="0 0 31 30" fill="none" xmlns="http://www.w3.org/2000/svg">
<g clip-path="url(#clip0_36_2892)">
<g clip-path="url(#clip1_36_2892)">
<g clip-path="url(#clip2_36_2892)">
<mask id="mask0_36_2892" style="mask-type:luminance" maskUnits="userSpaceOnUse" x="0" y="0" width="31" height="30">
<path d="M30.53 0H0.530029V30H30.53V0Z" fill="white"/>
</mask>
<g mask="url(#mask0_36_2892)">
<path d="M27.7175 0.703233H3.34253C2.78948 0.697605 2.25678 0.911603 1.86132 1.29827C1.46587 1.68494 1.23995 2.21269 1.23315 2.76573V27.2392C1.24118 27.7914 1.46764 28.3179 1.86296 28.7036C2.25828 29.0893 2.79028 29.3026 3.34253 29.297H27.7175C28.2706 29.3014 28.8029 29.0866 29.1982 28.6997C29.5934 28.3128 29.8195 27.7852 29.8269 27.2321V2.7587C29.817 2.20728 29.5899 1.68205 29.1949 1.29715C28.7999 0.91226 28.269 0.698822 27.7175 0.703233Z" fill="#0076B2"/>
<path d="M5.46616 11.4211H9.71069V25.0782H5.46616V11.4211ZM7.5896 4.62427C8.07643 4.62427 8.55232 4.76866 8.95707 5.03917C9.36182 5.30969 9.67724 5.69417 9.86343 6.14399C10.0496 6.5938 10.0982 7.08873 10.0031 7.56617C9.90793 8.04361 9.67332 8.4821 9.32892 8.82618C8.98451 9.17025 8.5458 9.40445 8.06827 9.49914C7.59074 9.59383 7.09585 9.54476 6.64622 9.35814C6.19658 9.17152 5.8124 8.85573 5.54227 8.45072C5.27214 8.04572 5.1282 7.56969 5.12866 7.08286C5.12929 6.43059 5.38884 5.80524 5.85028 5.34423C6.31173 4.88322 6.93733 4.62427 7.5896 4.62427ZM12.3732 11.4211H16.4419V13.2961H16.4982C17.0654 12.2227 18.4482 11.0907 20.513 11.0907C24.8114 11.0813 25.6083 13.9102 25.6083 17.5782V25.0782H21.3638V18.4336C21.3638 16.8516 21.3357 14.8149 19.1583 14.8149C16.981 14.8149 16.6107 16.5399 16.6107 18.3305V25.0782H12.3732V11.4211Z" fill="white"/>
</g>
</g>
</g>
</g>
<defs>
<clipPath id="clip0_36_2892">
<rect width="30" height="30" fill="white" transform="translate(0.530029)"/>
</clipPath>
<clipPath id="clip1_36_2892">
<rect width="30" height="30" fill="white" transform="translate(0.530029)"/>
</clipPath>
<clipPath id="clip2_36_2892">
<rect width="30" height="30" fill="white" transform="translate(0.530029)"/>
</clipPath>
</defs>
</svg>
