<svg width="48" height="48" viewBox="0 0 48 48" fill="none" xmlns="http://www.w3.org/2000/svg">
<rect x="1" y="0.5" width="46" height="46" rx="3" fill="url(#paint0_radial_36_4028)"/>
<g filter="url(#filter0_f_36_4028)">
<rect x="10" y="10" width="28" height="28" rx="14" fill="#2867B2"/>
</g>
<path d="M47 3.5C47 1.84315 45.6569 0.5 44 0.5H4C2.34315 0.5 1 1.84315 1 3.5V43.5C1 45.1569 2.34315 46.5 4 46.5H44C45.6569 46.5 47 45.1569 47 43.5V3.5Z" stroke="#2867B2"/>
<g filter="url(#filter1_f_36_4028)">
<path d="M18.5 33.5H14.25V20.125H18.5V33.5ZM16.375 18.25C15 18.25 14 17.25 14 15.875C14 14.5 15.125 13.5 16.375 13.5C17.75 13.5 18.75 14.5 18.75 15.875C18.75 17.25 17.75 18.25 16.375 18.25ZM34 33.5H29.75V26.25C29.75 24.125 28.875 23.5 27.625 23.5C26.375 23.5 25.125 24.5 25.125 26.375V33.5H20.875V20.125H24.875V22C25.25 21.125 26.75 19.75 28.875 19.75C31.25 19.75 33.75 21.125 33.75 25.25V33.5H34Z" fill="#0C89FF"/>
</g>
<path d="M18.5 33.5H14.25V20.125H18.5V33.5ZM16.375 18.25C15 18.25 14 17.25 14 15.875C14 14.5 15.125 13.5 16.375 13.5C17.75 13.5 18.75 14.5 18.75 15.875C18.75 17.25 17.75 18.25 16.375 18.25ZM34 33.5H29.75V26.25C29.75 24.125 28.875 23.5 27.625 23.5C26.375 23.5 25.125 24.5 25.125 26.375V33.5H20.875V20.125H24.875V22C25.25 21.125 26.75 19.75 28.875 19.75C31.25 19.75 33.75 21.125 33.75 25.25V33.5H34Z" fill="white"/>
<defs>
<filter id="filter0_f_36_4028" x="0" y="0" width="48" height="48" filterUnits="userSpaceOnUse" color-interpolation-filters="sRGB">
<feFlood flood-opacity="0" result="BackgroundImageFix"/>
<feBlend mode="normal" in="SourceGraphic" in2="BackgroundImageFix" result="shape"/>
<feGaussianBlur stdDeviation="5" result="effect1_foregroundBlur_36_4028"/>
</filter>
<filter id="filter1_f_36_4028" x="10" y="9.5" width="28" height="28" filterUnits="userSpaceOnUse" color-interpolation-filters="sRGB">
<feFlood flood-opacity="0" result="BackgroundImageFix"/>
<feBlend mode="normal" in="SourceGraphic" in2="BackgroundImageFix" result="shape"/>
<feGaussianBlur stdDeviation="2" result="effect1_foregroundBlur_36_4028"/>
</filter>
<radialGradient id="paint0_radial_36_4028" cx="0" cy="0" r="1" gradientUnits="userSpaceOnUse" gradientTransform="translate(24 23.5) rotate(90) scale(23)">
<stop stop-color="#2867B2"/>
<stop offset="1" stop-color="#2867B2" stop-opacity="0"/>
</radialGradient>
</defs>
</svg>
