<svg width="19" height="18" viewBox="0 0 19 18" fill="none" xmlns="http://www.w3.org/2000/svg">
<path d="M18.6666 7.20669C18.6578 7.41868 18.5457 7.66078 18.3282 7.85197C17.4576 8.61675 16.5866 9.3808 15.715 10.1441C15.3081 10.5012 14.9006 10.8577 14.4926 11.2136C14.4343 11.2643 14.4195 11.3092 14.4374 11.3879C14.7506 12.7566 15.0613 14.126 15.3695 15.4959C15.4318 15.7712 15.4933 16.047 15.5607 16.3214C15.6589 16.7277 15.5334 17.1292 15.2167 17.3565C14.8683 17.6064 14.4983 17.6227 14.13 17.4043C12.9569 16.7069 11.7853 16.0067 10.6152 15.3037C10.342 15.1405 10.0655 14.9811 9.79688 14.8119C9.70702 14.7553 9.64177 14.7548 9.54952 14.8102C8.12656 15.6644 6.70049 16.5133 5.27921 17.3672C4.97736 17.5484 4.66906 17.6165 4.33542 17.4795C3.89401 17.2984 3.66338 16.8343 3.77308 16.352C4.08329 14.9868 4.39398 13.6217 4.70515 12.2566C4.77063 11.9698 4.82918 11.6809 4.90016 11.3962C4.92072 11.314 4.90638 11.2655 4.844 11.2112C4.30929 10.7462 3.77594 10.2795 3.24395 9.81123C2.49853 9.15687 1.75025 8.50705 1.00913 7.84791C0.706566 7.57928 0.59185 7.23633 0.715887 6.84414C0.839924 6.45195 1.11716 6.21583 1.53061 6.17329C2.26336 6.09825 2.99731 6.03539 3.73077 5.96823C4.45636 5.90179 5.18194 5.83583 5.90752 5.77035C6.14938 5.7486 6.39124 5.72422 6.63334 5.70582C6.71125 5.70008 6.75283 5.66591 6.78199 5.59493C7.43922 4.05056 8.09756 2.50683 8.75702 0.963736C8.93913 0.537135 9.2644 0.298859 9.67786 0.309614C10.0913 0.320369 10.3896 0.522317 10.5535 0.902076C10.9997 1.93524 11.4402 2.97079 11.8826 4.00587C12.1077 4.53165 12.3333 5.05887 12.5546 5.58704C12.5885 5.6683 12.6371 5.69985 12.7219 5.70654C13.305 5.75593 13.888 5.80771 14.4708 5.86188C15.3194 5.939 16.1679 6.01675 17.0164 6.09514C17.2859 6.11904 17.5558 6.14294 17.8246 6.17305C18.3136 6.23089 18.6704 6.63885 18.6666 7.20669Z" fill="#4580FF"/>
</svg>
