<svg width="31" height="30" viewBox="0 0 31 30" fill="none" xmlns="http://www.w3.org/2000/svg">
<g clip-path="url(#clip0_36_2911)">
<g clip-path="url(#clip1_36_2911)">
<g clip-path="url(#clip2_36_2911)">
<mask id="mask0_36_2911" style="mask-type:luminance" maskUnits="userSpaceOnUse" x="0" y="0" width="31" height="30">
<path d="M30.53 0H0.530029V30H30.53V0Z" fill="white"/>
</mask>
<g mask="url(#mask0_36_2911)">
<path fill-rule="evenodd" clip-rule="evenodd" d="M30.53 5.45956C29.4277 5.96154 28.2409 6.30101 26.9959 6.45269C28.2673 5.67263 29.2428 4.43572 29.7024 2.96226C28.512 3.68455 27.1967 4.21 25.7915 4.49169C24.6716 3.26562 23.0709 2.5 21.2995 2.5C17.9028 2.5 15.147 5.32593 15.147 8.81094C15.147 9.3057 15.1998 9.78603 15.3055 10.2483C10.1902 9.98466 5.65593 7.47472 2.61842 3.65204C2.0884 4.58739 1.78552 5.67263 1.78552 6.82828C1.78552 9.01679 2.87199 10.9489 4.52369 12.0811C3.51647 12.0504 2.5656 11.7633 1.73446 11.2938V11.3714C1.73446 14.4303 3.85632 16.9818 6.67371 17.5596C6.15778 17.7077 5.61367 17.7817 5.05195 17.7817C4.65576 17.7817 4.26836 17.7438 3.8933 17.6697C4.67688 20.1761 6.9484 22.0016 9.64254 22.0504C7.53654 23.7441 4.88114 24.7535 1.99859 24.7535C1.50203 24.7535 1.01075 24.7246 0.530029 24.6668C3.2541 26.4545 6.49058 27.5 9.96479 27.5C21.2872 27.5 27.4766 17.8846 27.4766 9.54406C27.4766 9.26959 27.4714 8.99512 27.4608 8.72607C28.6635 7.83586 29.7077 6.72536 30.53 5.45956Z" fill="#00AAEC"/>
</g>
</g>
</g>
</g>
<defs>
<clipPath id="clip0_36_2911">
<rect width="30" height="30" fill="white" transform="translate(0.530029)"/>
</clipPath>
<clipPath id="clip1_36_2911">
<rect width="30" height="30" fill="white" transform="translate(0.530029)"/>
</clipPath>
<clipPath id="clip2_36_2911">
<rect width="30" height="30" fill="white" transform="translate(0.530029)"/>
</clipPath>
</defs>
</svg>
