<svg width="48" height="47" viewBox="0 0 48 47" fill="none" xmlns="http://www.w3.org/2000/svg">
<rect x="1" y="0.5" width="46" height="46" rx="3" fill="url(#paint0_radial_36_4012)"/>
<g filter="url(#filter0_f_36_4012)">
<rect x="14" y="13.5" width="20" height="20" rx="10" fill="#25D366"/>
</g>
<path d="M47 3.5C47 1.84315 45.6569 0.5 44 0.5H4C2.34315 0.5 1 1.84315 1 3.5V43.5C1 45.1569 2.34315 46.5 4 46.5H44C45.6569 46.5 47 45.1569 47 43.5V3.5Z" stroke="#25D366"/>
<path fill-rule="evenodd" clip-rule="evenodd" d="M32.05 15.3063C29.8938 13.15 27.0188 12 24 12C17.675 12 12.5 17.175 12.5 23.5C12.5 25.5125 13.075 27.525 14.0813 29.25L12.5 35L18.5375 33.4187C20.2625 34.2812 22.1313 34.8562 24 34.8562C30.325 34.8562 35.5 29.6812 35.5 23.3562C35.5 20.3375 34.2063 17.4625 32.05 15.3063ZM24 32.9875C22.275 32.9875 20.55 32.5563 19.1125 31.6938L18.825 31.55L15.2312 32.5562L16.2375 29.1062L15.95 28.675C14.9437 27.0938 14.5125 25.3688 14.5125 23.6438C14.5125 18.4688 18.825 14.1562 24 14.1562C26.5875 14.1562 28.8875 15.1625 30.7563 16.8875C32.625 18.7562 33.4875 21.0563 33.4875 23.6438C33.4875 28.675 29.3188 32.9875 24 32.9875ZM29.175 25.8C28.8875 25.6563 27.45 24.9375 27.1625 24.9375C26.875 24.7937 26.7312 24.7938 26.5875 25.0813C26.4437 25.3688 25.8688 25.9437 25.725 26.2312C25.5813 26.375 25.4375 26.375 25.15 26.375C24.8625 26.2312 24 25.9438 22.85 24.9375C21.9875 24.2188 21.4125 23.2125 21.2688 22.925C21.125 22.6375 21.2688 22.4937 21.4125 22.35C21.5563 22.2063 21.7 22.0625 21.8438 21.9187C21.9875 21.775 21.9875 21.6313 22.1313 21.4875C22.275 21.3438 22.1313 21.2 22.1313 21.0563C22.1313 20.9125 21.5563 19.475 21.2688 18.9C21.125 18.4688 20.8375 18.4688 20.6938 18.4688C20.55 18.4688 20.4062 18.4688 20.1187 18.4688C19.975 18.4688 19.6875 18.4687 19.4 18.7562C19.1125 19.0437 18.3938 19.7625 18.3938 21.2C18.3938 22.6375 19.4 23.9312 19.5437 24.2188C19.6875 24.3625 21.5562 27.3813 24.4312 28.5312C26.875 29.5375 27.3063 29.25 27.8813 29.25C28.4563 29.25 29.6063 28.5312 29.75 27.9563C30.0375 27.2375 30.0375 26.6625 29.8938 26.6625C29.75 25.9438 29.4625 25.9438 29.175 25.8Z" fill="white"/>
<defs>
<filter id="filter0_f_36_4012" x="4" y="3.5" width="40" height="40" filterUnits="userSpaceOnUse" color-interpolation-filters="sRGB">
<feFlood flood-opacity="0" result="BackgroundImageFix"/>
<feBlend mode="normal" in="SourceGraphic" in2="BackgroundImageFix" result="shape"/>
<feGaussianBlur stdDeviation="5" result="effect1_foregroundBlur_36_4012"/>
</filter>
<radialGradient id="paint0_radial_36_4012" cx="0" cy="0" r="1" gradientUnits="userSpaceOnUse" gradientTransform="translate(24 23.5) rotate(90) scale(23)">
<stop stop-color="#25D366"/>
<stop offset="1" stop-color="#25D366" stop-opacity="0"/>
</radialGradient>
</defs>
</svg>
