<svg width="31" height="30" viewBox="0 0 31 30" fill="none" xmlns="http://www.w3.org/2000/svg">
<g clip-path="url(#clip0_36_2901)">
<g clip-path="url(#clip1_36_2901)">
<g clip-path="url(#clip2_36_2901)">
<mask id="mask0_36_2901" style="mask-type:luminance" maskUnits="userSpaceOnUse" x="0" y="0" width="31" height="30">
<path d="M30.53 0H0.530029V30H30.53V0Z" fill="white"/>
</mask>
<g mask="url(#mask0_36_2901)">
<path d="M23.4988 0H7.56128C3.67803 0 0.530029 3.148 0.530029 7.03125V22.9688C0.530029 26.852 3.67803 30 7.56128 30H23.4988C27.382 30 30.53 26.852 30.53 22.9688V7.03125C30.53 3.148 27.382 0 23.4988 0Z" fill="url(#paint0_radial_36_2901)"/>
<path d="M23.4988 0H7.56128C3.67803 0 0.530029 3.148 0.530029 7.03125V22.9688C0.530029 26.852 3.67803 30 7.56128 30H23.4988C27.382 30 30.53 26.852 30.53 22.9688V7.03125C30.53 3.148 27.382 0 23.4988 0Z" fill="url(#paint1_radial_36_2901)"/>
<path d="M15.5311 3.28125C12.3485 3.28125 11.949 3.2952 10.6991 3.35203C9.45151 3.40922 8.59991 3.60668 7.85483 3.89648C7.08398 4.19578 6.43019 4.59621 5.77886 5.24777C5.12694 5.89922 4.72651 6.55301 4.42628 7.32352C4.13566 8.06883 3.93796 8.92078 3.88183 10.1678C3.82593 11.4178 3.81128 11.8174 3.81128 15.0001C3.81128 18.1828 3.82534 18.581 3.88206 19.8309C3.93948 21.0785 4.13694 21.9301 4.42651 22.6752C4.72605 23.4461 5.12648 24.0998 5.77804 24.7512C6.42925 25.4031 7.08304 25.8045 7.85331 26.1038C8.59898 26.3936 9.45069 26.591 10.698 26.6482C11.948 26.705 12.3472 26.719 15.5296 26.719C18.7126 26.719 19.1108 26.705 20.3607 26.6482C21.6083 26.591 22.4608 26.3936 23.2065 26.1038C23.977 25.8045 24.6298 25.4031 25.2809 24.7512C25.9329 24.0998 26.3332 23.4461 26.6335 22.6755C26.9216 21.9301 27.1194 21.0783 27.178 19.8312C27.2341 18.5812 27.2488 18.1828 27.2488 15.0001C27.2488 11.8174 27.2341 11.418 27.178 10.168C27.1194 8.92043 26.9216 8.06895 26.6335 7.32387C26.3332 6.55301 25.9329 5.89922 25.2809 5.24777C24.6291 4.59598 23.9772 4.19555 23.2058 3.8966C22.4587 3.60668 21.6066 3.4091 20.3591 3.35203C19.109 3.2952 18.7111 3.28125 15.5274 3.28125H15.5311ZM14.4798 5.39309C14.7918 5.39262 15.14 5.39309 15.5311 5.39309C18.6601 5.39309 19.0309 5.40434 20.2665 5.46047C21.4091 5.51273 22.0292 5.70363 22.4423 5.86406C22.9892 6.07641 23.3791 6.33035 23.789 6.74063C24.1992 7.15078 24.453 7.54137 24.6659 8.08828C24.8264 8.50078 25.0175 9.12094 25.0695 10.2635C25.1257 11.4989 25.1379 11.8699 25.1379 14.9974C25.1379 18.1249 25.1257 18.4961 25.0695 19.7313C25.0173 20.8739 24.8264 21.4941 24.6659 21.9067C24.4536 22.4536 24.1992 22.843 23.789 23.2529C23.3789 23.6631 22.9895 23.9169 22.4423 24.1294C22.0297 24.2905 21.4091 24.4809 20.2665 24.5332C19.0311 24.5893 18.6601 24.6015 15.5311 24.6015C12.4019 24.6015 12.031 24.5893 10.7957 24.5332C9.65319 24.4805 9.03304 24.2896 8.6196 24.1291C8.0728 23.9167 7.6821 23.6629 7.27194 23.2527C6.86179 22.8425 6.60796 22.4529 6.39503 21.9057C6.2346 21.4931 6.04347 20.873 5.99144 19.7304C5.9353 18.495 5.92405 18.124 5.92405 14.9945C5.92405 11.8651 5.9353 11.496 5.99144 10.2606C6.0437 9.11801 6.2346 8.49785 6.39503 8.08477C6.60749 7.53785 6.86179 7.14727 7.27206 6.73711C7.68222 6.32695 8.0728 6.07301 8.61972 5.8602C9.0328 5.69906 9.65319 5.50863 10.7957 5.45613C11.8768 5.40727 12.2957 5.39262 14.4798 5.39016V5.39309ZM21.7865 7.33887C21.0102 7.33887 20.3803 7.96816 20.3803 8.74465C20.3803 9.52102 21.0102 10.1509 21.7865 10.1509C22.5629 10.1509 23.1928 9.52102 23.1928 8.74465C23.1928 7.96828 22.5629 7.33887 21.7865 7.33887ZM15.5311 8.98195C12.2076 8.98195 9.51304 11.6766 9.51304 15.0001C9.51304 18.3237 12.2076 21.017 15.5311 21.017C18.8546 21.017 21.5483 18.3237 21.5483 15.0001C21.5483 11.6767 18.8547 8.98195 15.5311 8.98195ZM15.5311 11.0938C17.6884 11.0938 19.4374 12.8426 19.4374 15.0001C19.4374 17.1574 17.6884 18.9064 15.5311 18.9064C13.3736 18.9064 11.6248 17.1574 11.6248 15.0001C11.6248 12.8426 13.3736 11.0938 15.5311 11.0938Z" fill="white"/>
</g>
</g>
</g>
</g>
<defs>
<radialGradient id="paint0_radial_36_2901" cx="0" cy="0" r="1" gradientUnits="userSpaceOnUse" gradientTransform="translate(8.49878 32.3106) rotate(-90) scale(29.7322 27.6533)">
<stop stop-color="#FFDD55"/>
<stop offset="0.1" stop-color="#FFDD55"/>
<stop offset="0.5" stop-color="#FF543E"/>
<stop offset="1" stop-color="#C837AB"/>
</radialGradient>
<radialGradient id="paint1_radial_36_2901" cx="0" cy="0" r="1" gradientUnits="userSpaceOnUse" gradientTransform="translate(-4.49509 2.16105) rotate(78.681) scale(13.2905 54.7837)">
<stop stop-color="#3771C8"/>
<stop offset="0.128" stop-color="#3771C8"/>
<stop offset="1" stop-color="#6600FF" stop-opacity="0"/>
</radialGradient>
<clipPath id="clip0_36_2901">
<rect width="30" height="30" fill="white" transform="translate(0.530029)"/>
</clipPath>
<clipPath id="clip1_36_2901">
<rect width="30" height="30" fill="white" transform="translate(0.530029)"/>
</clipPath>
<clipPath id="clip2_36_2901">
<rect width="30" height="30" fill="white" transform="translate(0.530029)"/>
</clipPath>
</defs>
</svg>
