<svg width="54" height="54" viewBox="0 0 54 54" fill="none" xmlns="http://www.w3.org/2000/svg">
<g filter="url(#filter0_f_36_3989)">
<rect x="10" y="10" width="34" height="34" rx="17" fill="#E4E4E4" fill-opacity="0.5"/>
</g>
<path d="M50 6.5C50 4.84315 48.6569 3.5 47 3.5H7C5.34315 3.5 4 4.84315 4 6.5V46.5C4 48.1569 5.34315 49.5 7 49.5H47C48.6569 49.5 50 48.1569 50 46.5V6.5Z" stroke="white"/>
<path d="M32 34.5H22C19 34.5 17 33 17 29.5V22.5C17 19 19 17.5 22 17.5H32C35 17.5 37 19 37 22.5V29.5C37 33 35 34.5 32 34.5Z" stroke="white" stroke-width="2" stroke-miterlimit="10" stroke-linecap="round" stroke-linejoin="round"/>
<path d="M32 23L28.87 25.5C27.84 26.32 26.15 26.32 25.12 25.5L22 23" stroke="white" stroke-width="2" stroke-miterlimit="10" stroke-linecap="round" stroke-linejoin="round"/>
<defs>
<filter id="filter0_f_36_3989" x="0" y="0" width="54" height="54" filterUnits="userSpaceOnUse" color-interpolation-filters="sRGB">
<feFlood flood-opacity="0" result="BackgroundImageFix"/>
<feBlend mode="normal" in="SourceGraphic" in2="BackgroundImageFix" result="shape"/>
<feGaussianBlur stdDeviation="5" result="effect1_foregroundBlur_36_3989"/>
</filter>
</defs>
</svg>
