<svg width="25" height="24" viewBox="0 0 25 24" fill="none" xmlns="http://www.w3.org/2000/svg">
<path d="M19.58 4.91006C18.6632 3.98399 17.5712 3.24973 16.3676 2.75011C15.164 2.25049 13.8731 1.99553 12.57 2.00006C7.10999 2.00006 2.65999 6.45006 2.65999 11.9101C2.65999 13.6601 3.11999 15.3601 3.97999 16.8601L2.57999 22.0001L7.82999 20.6201C9.28001 21.41 10.91 21.83 12.57 21.83C18.03 21.83 22.48 17.3801 22.48 11.9201C22.48 9.27007 21.45 6.78006 19.58 4.91006ZM12.57 20.15C11.09 20.15 9.64002 19.7501 8.36999 19.0001L8.06999 18.8201L4.94999 19.64L5.77999 16.6001L5.57999 16.2901C4.75774 14.977 4.32113 13.4593 4.31999 11.9101C4.31999 7.37006 8.01999 3.67006 12.56 3.67006C14.76 3.67006 16.83 4.53006 18.38 6.09006C19.1474 6.85403 19.7557 7.76273 20.1694 8.7635C20.5831 9.76421 20.794 10.8372 20.79 11.9201C20.81 16.46 17.11 20.15 12.57 20.15ZM17.09 13.9901C16.84 13.8701 15.62 13.2701 15.4 13.1801C15.17 13.1 15.01 13.0601 14.84 13.3001C14.67 13.55 14.2 14.1101 14.06 14.27C13.92 14.4401 13.77 14.4601 13.52 14.33C13.27 14.21 12.47 13.94 11.53 13.1C10.79 12.44 10.3 11.63 10.15 11.3801C10.01 11.1301 10.13 11 10.26 10.8701C10.37 10.76 10.51 10.58 10.63 10.4401C10.75 10.3001 10.8 10.19 10.88 10.0301C10.96 9.86004 10.92 9.72007 10.86 9.60007C10.8 9.48007 10.3 8.26006 10.1 7.76006C9.89999 7.28006 9.68999 7.34006 9.53999 7.33006H9.05999C8.88999 7.33006 8.62998 7.39006 8.39999 7.64006C8.17998 7.89006 7.53999 8.49006 7.53999 9.71004C7.53999 10.9301 8.42999 12.11 8.54999 12.2701C8.66999 12.44 10.3 14.9401 12.78 16.01C13.37 16.2701 13.83 16.4201 14.19 16.5301C14.78 16.7201 15.32 16.6901 15.75 16.6301C16.23 16.5601 17.22 16.0301 17.42 15.4501C17.63 14.87 17.63 14.3801 17.56 14.27C17.49 14.1601 17.34 14.1101 17.09 13.9901Z" fill="#FF7636"/>
</svg>
